<?xml version="1.0" encoding="UTF-8" standalone="no"?>
<!-- Created with Inkscape (http://www.inkscape.org/) -->

<svg
   xmlns:dc="http://purl.org/dc/elements/1.1/"
   xmlns:cc="http://creativecommons.org/ns#"
   xmlns:rdf="http://www.w3.org/1999/02/22-rdf-syntax-ns#"
   xmlns:svg="http://www.w3.org/2000/svg"
   xmlns="http://www.w3.org/2000/svg"
   xmlns:xlink="http://www.w3.org/1999/xlink"
   xmlns:sodipodi="http://sodipodi.sourceforge.net/DTD/sodipodi-0.dtd"
   xmlns:inkscape="http://www.inkscape.org/namespaces/inkscape"
   width="448"
   height="32"
   id="svg2"
   version="1.1"
   inkscape:version="0.48.4 r9939"
   sodipodi:docname="enemy1.svg"
   inkscape:export-filename="/home/erethar/project/alecs/media/images/viper.png"
   inkscape:export-xdpi="90"
   inkscape:export-ydpi="90">
  <defs
     id="defs4">
    <linearGradient
       id="linearGradient4130">
      <stop
         style="stop-color:#ff8080;stop-opacity:1;"
         offset="0"
         id="stop4132" />
      <stop
         style="stop-color:#ff8080;stop-opacity:0;"
         offset="1"
         id="stop4134" />
    </linearGradient>
    <radialGradient
       inkscape:collect="always"
       xlink:href="#linearGradient4130"
       id="radialGradient4136"
       cx="13"
       cy="20"
       fx="13"
       fy="20"
       r="3"
       gradientUnits="userSpaceOnUse" />
    <radialGradient
       inkscape:collect="always"
       xlink:href="#linearGradient4130"
       id="radialGradient4152"
       gradientUnits="userSpaceOnUse"
       cx="13"
       cy="20"
       fx="13"
       fy="20"
       r="3" />
    <radialGradient
       inkscape:collect="always"
       xlink:href="#linearGradient4130"
       id="radialGradient4168"
       gradientUnits="userSpaceOnUse"
       cx="13"
       cy="20"
       fx="13"
       fy="20"
       r="3" />
    <radialGradient
       inkscape:collect="always"
       xlink:href="#linearGradient4130"
       id="radialGradient4184"
       gradientUnits="userSpaceOnUse"
       cx="13"
       cy="20"
       fx="13"
       fy="20"
       r="3" />
    <radialGradient
       inkscape:collect="always"
       xlink:href="#linearGradient4130"
       id="radialGradient4200"
       gradientUnits="userSpaceOnUse"
       cx="13"
       cy="20"
       fx="13"
       fy="20"
       r="3" />
    <radialGradient
       inkscape:collect="always"
       xlink:href="#linearGradient4130"
       id="radialGradient4216"
       gradientUnits="userSpaceOnUse"
       cx="13"
       cy="20"
       fx="13"
       fy="20"
       r="3" />
    <radialGradient
       inkscape:collect="always"
       xlink:href="#linearGradient4130"
       id="radialGradient4232"
       gradientUnits="userSpaceOnUse"
       cx="13"
       cy="20"
       fx="13"
       fy="20"
       r="3" />
    <radialGradient
       inkscape:collect="always"
       xlink:href="#linearGradient4130"
       id="radialGradient4248"
       gradientUnits="userSpaceOnUse"
       cx="13"
       cy="20"
       fx="13"
       fy="20"
       r="3" />
    <radialGradient
       inkscape:collect="always"
       xlink:href="#linearGradient4130"
       id="radialGradient4265"
       gradientUnits="userSpaceOnUse"
       cx="13"
       cy="20"
       fx="13"
       fy="20"
       r="3" />
    <radialGradient
       inkscape:collect="always"
       xlink:href="#linearGradient4130"
       id="radialGradient4267"
       gradientUnits="userSpaceOnUse"
       cx="13"
       cy="20"
       fx="13"
       fy="20"
       r="3" />
    <radialGradient
       inkscape:collect="always"
       xlink:href="#linearGradient4130"
       id="radialGradient4269"
       gradientUnits="userSpaceOnUse"
       cx="13"
       cy="20"
       fx="13"
       fy="20"
       r="3" />
    <radialGradient
       inkscape:collect="always"
       xlink:href="#linearGradient4130"
       id="radialGradient4271"
       gradientUnits="userSpaceOnUse"
       cx="13"
       cy="20"
       fx="13"
       fy="20"
       r="3" />
    <radialGradient
       inkscape:collect="always"
       xlink:href="#linearGradient4130"
       id="radialGradient4273"
       gradientUnits="userSpaceOnUse"
       cx="13"
       cy="20"
       fx="13"
       fy="20"
       r="3" />
    <radialGradient
       inkscape:collect="always"
       xlink:href="#linearGradient4130"
       id="radialGradient4314"
       gradientUnits="userSpaceOnUse"
       cx="13"
       cy="20"
       fx="13"
       fy="20"
       r="3" />
    <radialGradient
       inkscape:collect="always"
       xlink:href="#linearGradient4130"
       id="radialGradient4316"
       gradientUnits="userSpaceOnUse"
       cx="13"
       cy="20"
       fx="13"
       fy="20"
       r="3" />
    <radialGradient
       inkscape:collect="always"
       xlink:href="#linearGradient4130"
       id="radialGradient4318"
       gradientUnits="userSpaceOnUse"
       cx="13"
       cy="20"
       fx="13"
       fy="20"
       r="3" />
  </defs>
  <sodipodi:namedview
     id="base"
     pagecolor="#ffffff"
     bordercolor="#666666"
     borderopacity="1.0"
     inkscape:pageopacity="0.0"
     inkscape:pageshadow="2"
     inkscape:zoom="3.0691964"
     inkscape:cx="289.16364"
     inkscape:cy="16"
     inkscape:document-units="px"
     inkscape:current-layer="layer3"
     showgrid="true"
     inkscape:window-width="1918"
     inkscape:window-height="1059"
     inkscape:window-x="0"
     inkscape:window-y="19"
     inkscape:window-maximized="0">
    <inkscape:grid
       type="xygrid"
       id="grid2985"
       empspacing="8"
       visible="true"
       enabled="true"
       snapvisiblegridlinesonly="true"
       spacingx="1px"
       spacingy="1px" />
    <inkscape:grid
       type="xygrid"
       id="grid3774"
       empspacing="1"
       visible="true"
       enabled="true"
       snapvisiblegridlinesonly="true"
       spacingx="64px"
       spacingy="64px"
       color="#0000ff"
       opacity="0.42352941"
       empcolor="#0000ff"
       empopacity="1"
       dotted="false" />
  </sodipodi:namedview>
  <metadata
     id="metadata7">
    <rdf:RDF>
      <cc:Work
         rdf:about="">
        <dc:format>image/svg+xml</dc:format>
        <dc:type
           rdf:resource="http://purl.org/dc/dcmitype/StillImage" />
        <dc:title></dc:title>
      </cc:Work>
    </rdf:RDF>
  </metadata>
  <g
     inkscape:groupmode="layer"
     id="layer1"
     inkscape:label="engine"
     style="display:inline">
    <path
       sodipodi:type="arc"
       style="opacity:0.4;fill:url(#radialGradient4265);fill-opacity:1;fill-rule:nonzero;stroke:none;display:inline"
       id="path3360"
       sodipodi:cx="13"
       sodipodi:cy="20"
       sodipodi:rx="3"
       sodipodi:ry="3"
       d="m 16,20 a 3,3 0 1 1 -6,0 3,3 0 1 1 6,0 z"
       transform="matrix(2.5961862,0,0,1.4926501,-23.282483,-9.853001)" />
    <path
       transform="matrix(2.5961862,0,0,1.4926501,40.717517,-9.853001)"
       d="m 16,20 a 3,3 0 1 1 -6,0 3,3 0 1 1 6,0 z"
       sodipodi:ry="3"
       sodipodi:rx="3"
       sodipodi:cy="20"
       sodipodi:cx="13"
       id="path4138"
       style="opacity:0.6;fill:url(#radialGradient4267);fill-opacity:1;fill-rule:nonzero;stroke:none;display:inline"
       sodipodi:type="arc" />
    <path
       sodipodi:type="arc"
       style="opacity:0.8;fill:url(#radialGradient4269);fill-opacity:1;fill-rule:nonzero;stroke:none;display:inline"
       id="path4154"
       sodipodi:cx="13"
       sodipodi:cy="20"
       sodipodi:rx="3"
       sodipodi:ry="3"
       d="m 16,20 a 3,3 0 1 1 -6,0 3,3 0 1 1 6,0 z"
       transform="matrix(2.5961862,0,0,1.4926501,104.71752,-9.853001)" />
    <path
       transform="matrix(2.5961862,0,0,1.4926501,168.71752,-9.853001)"
       d="m 16,20 a 3,3 0 1 1 -6,0 3,3 0 1 1 6,0 z"
       sodipodi:ry="3"
       sodipodi:rx="3"
       sodipodi:cy="20"
       sodipodi:cx="13"
       id="path4170"
       style="fill:url(#radialGradient4271);fill-opacity:1;fill-rule:nonzero;stroke:none;display:inline"
       sodipodi:type="arc" />
    <path
       sodipodi:type="arc"
       style="opacity:0.8;fill:url(#radialGradient4273);fill-opacity:1;fill-rule:nonzero;stroke:none;display:inline"
       id="path4186"
       sodipodi:cx="13"
       sodipodi:cy="20"
       sodipodi:rx="3"
       sodipodi:ry="3"
       d="m 16,20 a 3,3 0 1 1 -6,0 3,3 0 1 1 6,0 z"
       transform="matrix(2.5961862,0,0,1.4926501,232.71752,-9.853001)" />
    <path
       transform="matrix(2.5961862,0,0,1.4926501,296.71752,-9.853001)"
       d="m 16,20 a 3,3 0 1 1 -6,0 3,3 0 1 1 6,0 z"
       sodipodi:ry="3"
       sodipodi:rx="3"
       sodipodi:cy="20"
       sodipodi:cx="13"
       id="path4202"
       style="opacity:0.6;fill:url(#radialGradient4314);fill-opacity:1;fill-rule:nonzero;stroke:none;display:inline"
       sodipodi:type="arc" />
    <path
       sodipodi:type="arc"
       style="opacity:0.4;fill:url(#radialGradient4316);fill-opacity:1;fill-rule:nonzero;stroke:none;display:inline"
       id="path4218"
       sodipodi:cx="13"
       sodipodi:cy="20"
       sodipodi:rx="3"
       sodipodi:ry="3"
       d="m 16,20 a 3,3 0 1 1 -6,0 3,3 0 1 1 6,0 z"
       transform="matrix(2.5961862,0,0,1.4926501,360.71752,-9.853001)" />
  </g>
  <g
     inkscape:groupmode="layer"
     id="layer2"
     inkscape:label="base"
     transform="translate(0,-32)"
     style="display:inline">
    <path
       inkscape:connector-curvature="0"
       id="path3871"
       d="m 192002,10 28,0 5,16 14,0"
       style="fill:none;stroke:#00ff00;stroke-width:1px;stroke-linecap:butt;stroke-linejoin:miter;stroke-opacity:1" />
    <path
       style="fill:none;stroke:#00ff00;stroke-width:1px;stroke-linecap:butt;stroke-linejoin:miter;stroke-opacity:1"
       d="m 192002,54 28,0 5,-16 14,0"
       id="path3873"
       inkscape:connector-curvature="0" />
    <path
       sodipodi:nodetypes="cccc"
       inkscape:connector-curvature="0"
       id="path3875"
       d="m 192002,50 23,0 5,-16 26,0"
       style="fill:none;stroke:#00ff00;stroke-width:1px;stroke-linecap:butt;stroke-linejoin:miter;stroke-opacity:1" />
    <path
       style="fill:none;stroke:#00ff00;stroke-width:1px;stroke-linecap:butt;stroke-linejoin:miter;stroke-opacity:1"
       d="m 192002,14 23,0 5,16 26,0"
       id="path3877"
       inkscape:connector-curvature="0"
       sodipodi:nodetypes="cccc" />
    <path
       inkscape:connector-curvature="0"
       id="path3879"
       d="m 192020,24 0,16"
       style="fill:none;stroke:#00ff00;stroke-width:1px;stroke-linecap:butt;stroke-linejoin:miter;stroke-opacity:1" />
    <path
       inkscape:connector-curvature="0"
       id="path3881"
       d="m 192009.2,19.460776 11,5"
       style="fill:#00ff00;stroke:#00ff00;stroke-width:1px;stroke-linecap:butt;stroke-linejoin:miter;stroke-opacity:1" />
    <path
       style="fill:#00ff00;stroke:#00ff00;stroke-width:1px;stroke-linecap:butt;stroke-linejoin:miter;stroke-opacity:1"
       d="m 192009.26,44.526602 11,-5"
       id="path3883"
       inkscape:connector-curvature="0" />
    <path
       style="fill:none;stroke:#00ff00;stroke-width:1px;stroke-linecap:butt;stroke-linejoin:miter;stroke-opacity:1"
       d="m 384002,10 28,0 5,16 14,0"
       id="path3991"
       inkscape:connector-curvature="0" />
    <path
       inkscape:connector-curvature="0"
       id="path3993"
       d="m 384002,54 28,0 5,-16 14,0"
       style="fill:none;stroke:#00ff00;stroke-width:1px;stroke-linecap:butt;stroke-linejoin:miter;stroke-opacity:1" />
    <path
       style="fill:none;stroke:#00ff00;stroke-width:1px;stroke-linecap:butt;stroke-linejoin:miter;stroke-opacity:1"
       d="m 384002,50 23,0 5,-16 26,0"
       id="path3995"
       inkscape:connector-curvature="0"
       sodipodi:nodetypes="cccc" />
    <path
       sodipodi:nodetypes="cccc"
       inkscape:connector-curvature="0"
       id="path3997"
       d="m 384002,14 23,0 5,16 26,0"
       style="fill:none;stroke:#00ff00;stroke-width:1px;stroke-linecap:butt;stroke-linejoin:miter;stroke-opacity:1" />
    <path
       style="fill:none;stroke:#00ff00;stroke-width:1px;stroke-linecap:butt;stroke-linejoin:miter;stroke-opacity:1"
       d="m 384020,24 0,16"
       id="path3999"
       inkscape:connector-curvature="0" />
    <path
       style="fill:#00ff00;stroke:#00ff00;stroke-width:1px;stroke-linecap:butt;stroke-linejoin:miter;stroke-opacity:1"
       d="m 384009.2,19.460776 11,5"
       id="path4001"
       inkscape:connector-curvature="0" />
    <path
       inkscape:connector-curvature="0"
       id="path4003"
       d="m 384009.26,44.526602 11,-5"
       style="fill:#00ff00;stroke:#00ff00;stroke-width:1px;stroke-linecap:butt;stroke-linejoin:miter;stroke-opacity:1" />
    <rect
       style="fill:#000000;fill-opacity:1;fill-rule:nonzero;stroke:none"
       id="rect3346"
       width="25.787067"
       height="24"
       x="15.048987"
       y="40" />
    <path
       sodipodi:type="arc"
       style="fill:#000000;fill-opacity:1;fill-rule:nonzero;stroke:none"
       id="path3348"
       sodipodi:cx="40"
       sodipodi:cy="8"
       sodipodi:rx="24"
       sodipodi:ry="24"
       d="M 64,8 A 24,24 0 0 1 40.000001,32 L 40,8 z"
       transform="matrix(1,0,0,-1,0,72)"
       sodipodi:start="0"
       sodipodi:end="1.5707963" />
    <path
       sodipodi:end="1.5707963"
       sodipodi:start="0"
       transform="matrix(0.42869585,0,0,-0.33115611,29.540605,58.2887)"
       d="M 64,8 A 24,24 0 0 1 40.000001,32 L 40,8 z"
       sodipodi:ry="24"
       sodipodi:rx="24"
       sodipodi:cy="8"
       sodipodi:cx="40"
       id="path3350"
       style="fill:#999999;fill-opacity:1;fill-rule:nonzero;stroke:none"
       sodipodi:type="arc" />
    <rect
       style="fill:#000000;fill-opacity:1;fill-rule:nonzero;stroke:none"
       id="rect3352"
       width="16"
       height="8"
       x="0"
       y="8"
       transform="translate(0,32)" />
    <rect
       y="56"
       x="0"
       height="8"
       width="16"
       id="rect3354"
       style="fill:#000000;fill-opacity:1;fill-rule:nonzero;stroke:none" />
    <path
       style="fill:#000000;stroke:#000000;stroke-width:1px;stroke-linecap:butt;stroke-linejoin:miter;stroke-opacity:1"
       d="m 0,16 15,4 -15,4 15,0 0,-8 c 0,0 -14,0 -15,0 z"
       id="path3356"
       inkscape:connector-curvature="0"
       transform="translate(0,32)" />
    <rect
       y="40"
       x="79.048988"
       height="24"
       width="25.787067"
       id="rect4140"
       style="fill:#000000;fill-opacity:1;fill-rule:nonzero;stroke:none" />
    <path
       sodipodi:end="1.5707963"
       sodipodi:start="0"
       transform="matrix(1,0,0,-1,64,72)"
       d="M 64,8 A 24,24 0 0 1 40.000001,32 L 40,8 z"
       sodipodi:ry="24"
       sodipodi:rx="24"
       sodipodi:cy="8"
       sodipodi:cx="40"
       id="path4142"
       style="fill:#000000;fill-opacity:1;fill-rule:nonzero;stroke:none"
       sodipodi:type="arc" />
    <path
       sodipodi:type="arc"
       style="fill:#999999;fill-opacity:1;fill-rule:nonzero;stroke:none"
       id="path4144"
       sodipodi:cx="40"
       sodipodi:cy="8"
       sodipodi:rx="24"
       sodipodi:ry="24"
       d="M 64,8 A 24,24 0 0 1 40.000001,32 L 40,8 z"
       transform="matrix(0.42869585,0,0,-0.33115611,93.540605,58.2887)"
       sodipodi:start="0"
       sodipodi:end="1.5707963" />
    <rect
       y="40"
       x="64"
       height="8"
       width="16"
       id="rect4146"
       style="fill:#000000;fill-opacity:1;fill-rule:nonzero;stroke:none" />
    <rect
       style="fill:#000000;fill-opacity:1;fill-rule:nonzero;stroke:none"
       id="rect4148"
       width="16"
       height="8"
       x="64"
       y="56" />
    <path
       inkscape:connector-curvature="0"
       id="path4150"
       d="m 64,48 15,4 -15,4 15,0 0,-8 c 0,0 -14,0 -15,0 z"
       style="fill:#000000;stroke:#000000;stroke-width:1px;stroke-linecap:butt;stroke-linejoin:miter;stroke-opacity:1" />
    <rect
       style="fill:#000000;fill-opacity:1;fill-rule:nonzero;stroke:none"
       id="rect4156"
       width="25.787067"
       height="24"
       x="143.04898"
       y="40" />
    <path
       sodipodi:type="arc"
       style="fill:#000000;fill-opacity:1;fill-rule:nonzero;stroke:none"
       id="path4158"
       sodipodi:cx="40"
       sodipodi:cy="8"
       sodipodi:rx="24"
       sodipodi:ry="24"
       d="M 64,8 A 24,24 0 0 1 40.000001,32 L 40,8 z"
       transform="matrix(1,0,0,-1,128,72)"
       sodipodi:start="0"
       sodipodi:end="1.5707963" />
    <path
       sodipodi:end="1.5707963"
       sodipodi:start="0"
       transform="matrix(0.42869585,0,0,-0.33115611,157.54061,58.2887)"
       d="M 64,8 A 24,24 0 0 1 40.000001,32 L 40,8 z"
       sodipodi:ry="24"
       sodipodi:rx="24"
       sodipodi:cy="8"
       sodipodi:cx="40"
       id="path4160"
       style="fill:#999999;fill-opacity:1;fill-rule:nonzero;stroke:none"
       sodipodi:type="arc" />
    <rect
       style="fill:#000000;fill-opacity:1;fill-rule:nonzero;stroke:none"
       id="rect4162"
       width="16"
       height="8"
       x="128"
       y="40" />
    <rect
       y="56"
       x="128"
       height="8"
       width="16"
       id="rect4164"
       style="fill:#000000;fill-opacity:1;fill-rule:nonzero;stroke:none" />
    <path
       style="fill:#000000;stroke:#000000;stroke-width:1px;stroke-linecap:butt;stroke-linejoin:miter;stroke-opacity:1"
       d="m 128,48 15,4 -15,4 15,0 0,-8 c 0,0 -14,0 -15,0 z"
       id="path4166"
       inkscape:connector-curvature="0" />
    <rect
       y="40"
       x="207.04898"
       height="24"
       width="25.787067"
       id="rect4172"
       style="fill:#000000;fill-opacity:1;fill-rule:nonzero;stroke:none" />
    <path
       sodipodi:end="1.5707963"
       sodipodi:start="0"
       transform="matrix(1,0,0,-1,192,72)"
       d="M 64,8 A 24,24 0 0 1 40.000001,32 L 40,8 z"
       sodipodi:ry="24"
       sodipodi:rx="24"
       sodipodi:cy="8"
       sodipodi:cx="40"
       id="path4174"
       style="fill:#000000;fill-opacity:1;fill-rule:nonzero;stroke:none"
       sodipodi:type="arc" />
    <path
       sodipodi:type="arc"
       style="fill:#999999;fill-opacity:1;fill-rule:nonzero;stroke:none"
       id="path4176"
       sodipodi:cx="40"
       sodipodi:cy="8"
       sodipodi:rx="24"
       sodipodi:ry="24"
       d="M 64,8 A 24,24 0 0 1 40.000001,32 L 40,8 z"
       transform="matrix(0.42869585,0,0,-0.33115611,221.54061,58.2887)"
       sodipodi:start="0"
       sodipodi:end="1.5707963" />
    <rect
       y="40"
       x="192"
       height="8"
       width="16"
       id="rect4178"
       style="fill:#000000;fill-opacity:1;fill-rule:nonzero;stroke:none" />
    <rect
       style="fill:#000000;fill-opacity:1;fill-rule:nonzero;stroke:none"
       id="rect4180"
       width="16"
       height="8"
       x="192"
       y="56" />
    <path
       inkscape:connector-curvature="0"
       id="path4182"
       d="m 192,48 15,4 -15,4 15,0 0,-8 c 0,0 -14,0 -15,0 z"
       style="fill:#000000;stroke:#000000;stroke-width:1px;stroke-linecap:butt;stroke-linejoin:miter;stroke-opacity:1" />
    <rect
       style="fill:#000000;fill-opacity:1;fill-rule:nonzero;stroke:none"
       id="rect4188"
       width="25.787067"
       height="24"
       x="271.04898"
       y="40" />
    <path
       sodipodi:type="arc"
       style="fill:#000000;fill-opacity:1;fill-rule:nonzero;stroke:none"
       id="path4190"
       sodipodi:cx="40"
       sodipodi:cy="8"
       sodipodi:rx="24"
       sodipodi:ry="24"
       d="M 64,8 A 24,24 0 0 1 40.000001,32 L 40,8 z"
       transform="matrix(1,0,0,-1,256,72)"
       sodipodi:start="0"
       sodipodi:end="1.5707963" />
    <path
       sodipodi:end="1.5707963"
       sodipodi:start="0"
       transform="matrix(0.42869585,0,0,-0.33115611,285.54061,58.2887)"
       d="M 64,8 A 24,24 0 0 1 40.000001,32 L 40,8 z"
       sodipodi:ry="24"
       sodipodi:rx="24"
       sodipodi:cy="8"
       sodipodi:cx="40"
       id="path4192"
       style="fill:#999999;fill-opacity:1;fill-rule:nonzero;stroke:none"
       sodipodi:type="arc" />
    <rect
       style="fill:#000000;fill-opacity:1;fill-rule:nonzero;stroke:none"
       id="rect4194"
       width="16"
       height="8"
       x="256"
       y="40" />
    <rect
       y="56"
       x="256"
       height="8"
       width="16"
       id="rect4196"
       style="fill:#000000;fill-opacity:1;fill-rule:nonzero;stroke:none" />
    <path
       style="fill:#000000;stroke:#000000;stroke-width:1px;stroke-linecap:butt;stroke-linejoin:miter;stroke-opacity:1"
       d="m 256,48 15,4 -15,4 15,0 0,-8 c 0,0 -14,0 -15,0 z"
       id="path4198"
       inkscape:connector-curvature="0" />
    <rect
       y="40"
       x="335.04898"
       height="24"
       width="25.787067"
       id="rect4204"
       style="fill:#000000;fill-opacity:1;fill-rule:nonzero;stroke:none" />
    <path
       sodipodi:end="1.5707963"
       sodipodi:start="0"
       transform="matrix(1,0,0,-1,320,72)"
       d="M 64,8 A 24,24 0 0 1 40.000001,32 L 40,8 z"
       sodipodi:ry="24"
       sodipodi:rx="24"
       sodipodi:cy="8"
       sodipodi:cx="40"
       id="path4206"
       style="fill:#000000;fill-opacity:1;fill-rule:nonzero;stroke:none"
       sodipodi:type="arc" />
    <path
       sodipodi:type="arc"
       style="fill:#999999;fill-opacity:1;fill-rule:nonzero;stroke:none"
       id="path4208"
       sodipodi:cx="40"
       sodipodi:cy="8"
       sodipodi:rx="24"
       sodipodi:ry="24"
       d="M 64,8 A 24,24 0 0 1 40.000001,32 L 40,8 z"
       transform="matrix(0.42869585,0,0,-0.33115611,349.54061,58.2887)"
       sodipodi:start="0"
       sodipodi:end="1.5707963" />
    <rect
       y="40"
       x="320"
       height="8"
       width="16"
       id="rect4210"
       style="fill:#000000;fill-opacity:1;fill-rule:nonzero;stroke:none" />
    <rect
       style="fill:#000000;fill-opacity:1;fill-rule:nonzero;stroke:none"
       id="rect4212"
       width="16"
       height="8"
       x="320"
       y="56" />
    <path
       inkscape:connector-curvature="0"
       id="path4214"
       d="m 320,48 15,4 -15,4 15,0 0,-8 c 0,0 -14,0 -15,0 z"
       style="fill:#000000;stroke:#000000;stroke-width:1px;stroke-linecap:butt;stroke-linejoin:miter;stroke-opacity:1" />
    <rect
       style="fill:#000000;fill-opacity:1;fill-rule:nonzero;stroke:none"
       id="rect4220"
       width="25.787067"
       height="24"
       x="399.04898"
       y="40" />
    <path
       sodipodi:type="arc"
       style="fill:#000000;fill-opacity:1;fill-rule:nonzero;stroke:none"
       id="path4222"
       sodipodi:cx="40"
       sodipodi:cy="8"
       sodipodi:rx="24"
       sodipodi:ry="24"
       d="M 64,8 A 24,24 0 0 1 40.000001,32 L 40,8 z"
       transform="matrix(1,0,0,-1,384,72)"
       sodipodi:start="0"
       sodipodi:end="1.5707963" />
    <path
       sodipodi:end="1.5707963"
       sodipodi:start="0"
       transform="matrix(0.42869585,0,0,-0.33115611,413.54061,58.2887)"
       d="M 64,8 A 24,24 0 0 1 40.000001,32 L 40,8 z"
       sodipodi:ry="24"
       sodipodi:rx="24"
       sodipodi:cy="8"
       sodipodi:cx="40"
       id="path4224"
       style="fill:#999999;fill-opacity:1;fill-rule:nonzero;stroke:none"
       sodipodi:type="arc" />
    <rect
       style="fill:#000000;fill-opacity:1;fill-rule:nonzero;stroke:none"
       id="rect4226"
       width="16"
       height="8"
       x="384"
       y="40" />
    <rect
       y="56"
       x="384"
       height="8"
       width="16"
       id="rect4228"
       style="fill:#000000;fill-opacity:1;fill-rule:nonzero;stroke:none" />
    <path
       style="fill:#000000;stroke:#000000;stroke-width:1px;stroke-linecap:butt;stroke-linejoin:miter;stroke-opacity:1"
       d="m 384,48 15,4 -15,4 15,0 0,-8 c 0,0 -14,0 -15,0 z"
       id="path4230"
       inkscape:connector-curvature="0" />
  </g>
  <g
     inkscape:groupmode="layer"
     id="layer3"
     inkscape:label="highlight">
    <path
       style="fill:none;stroke:#ff5555;stroke-width:1px;stroke-linecap:butt;stroke-linejoin:miter;stroke-opacity:1"
       d="m 16,16 24,0"
       id="path4278"
       inkscape:connector-curvature="0" />
    <path
       style="opacity:0.4;fill:none;stroke:#ff5555;stroke-width:1px;stroke-linecap:butt;stroke-linejoin:miter;stroke-opacity:1"
       d="m 16,24 24,0"
       id="path4280"
       inkscape:connector-curvature="0" />
    <path
       inkscape:connector-curvature="0"
       id="path4282"
       d="m 80,16 24,0"
       style="opacity:0.8;fill:none;stroke:#ff5555;stroke-width:1px;stroke-linecap:butt;stroke-linejoin:miter;stroke-opacity:1" />
    <path
       inkscape:connector-curvature="0"
       id="path4284"
       d="m 80,24 24,0"
       style="opacity:0.6;fill:none;stroke:#ff5555;stroke-width:1px;stroke-linecap:butt;stroke-linejoin:miter;stroke-opacity:1" />
    <path
       style="opacity:0.6;fill:none;stroke:#ff5555;stroke-width:1px;stroke-linecap:butt;stroke-linejoin:miter;stroke-opacity:1"
       d="m 144,16 24,0"
       id="path4286"
       inkscape:connector-curvature="0" />
    <path
       style="opacity:0.8;fill:none;stroke:#ff5555;stroke-width:1px;stroke-linecap:butt;stroke-linejoin:miter;stroke-opacity:1"
       d="m 144,24 24,0"
       id="path4288"
       inkscape:connector-curvature="0" />
    <path
       inkscape:connector-curvature="0"
       id="path4290"
       d="m 208,16 24,0"
       style="opacity:0.4;fill:none;stroke:#ff5555;stroke-width:1px;stroke-linecap:butt;stroke-linejoin:miter;stroke-opacity:1" />
    <path
       inkscape:connector-curvature="0"
       id="path4292"
       d="m 208,24 24,0"
       style="opacity:1;fill:none;stroke:#ff5555;stroke-width:1px;stroke-linecap:butt;stroke-linejoin:miter;stroke-opacity:1" />
    <path
       inkscape:connector-curvature="0"
       id="path4294"
       d="m 272,16 24,0"
       style="opacity:0.6;fill:none;stroke:#ff5555;stroke-width:1px;stroke-linecap:butt;stroke-linejoin:miter;stroke-opacity:1" />
    <path
       inkscape:connector-curvature="0"
       id="path4296"
       d="m 272,24 24,0"
       style="opacity:0.8;fill:none;stroke:#ff5555;stroke-width:1px;stroke-linecap:butt;stroke-linejoin:miter;stroke-opacity:1" />
    <path
       style="opacity:0.8;fill:none;stroke:#ff5555;stroke-width:1px;stroke-linecap:butt;stroke-linejoin:miter;stroke-opacity:1"
       d="m 336,16 24,0"
       id="path4298"
       inkscape:connector-curvature="0" />
    <path
       style="opacity:0.6;fill:none;stroke:#ff5555;stroke-width:1px;stroke-linecap:butt;stroke-linejoin:miter;stroke-opacity:1"
       d="m 336,24 24,0"
       id="path4300"
       inkscape:connector-curvature="0" />
    <path
       inkscape:connector-curvature="0"
       id="path4302"
       d="m 400,16 24,0"
       style="opacity:0.1;fill:none;stroke:#ff5555;stroke-width:1px;stroke-linecap:butt;stroke-linejoin:miter;stroke-opacity:1" />
    <path
       inkscape:connector-curvature="0"
       id="path4304"
       d="m 400,24 24,0"
       style="opacity:0.4;fill:none;stroke:#ff5555;stroke-width:1px;stroke-linecap:butt;stroke-linejoin:miter;stroke-opacity:1" />
    <path
       style="fill:none;stroke:#ff5555;stroke-width:1px;stroke-linecap:butt;stroke-linejoin:miter;stroke-opacity:1"
       d="m 400,16 24,0"
       id="path4306"
       inkscape:connector-curvature="0" />
  </g>
</svg>
