<?xml version="1.0" encoding="UTF-8" standalone="no"?>
<!-- Created with Inkscape (http://www.inkscape.org/) -->

<svg
   xmlns:dc="http://purl.org/dc/elements/1.1/"
   xmlns:cc="http://creativecommons.org/ns#"
   xmlns:rdf="http://www.w3.org/1999/02/22-rdf-syntax-ns#"
   xmlns:svg="http://www.w3.org/2000/svg"
   xmlns="http://www.w3.org/2000/svg"
   xmlns:sodipodi="http://sodipodi.sourceforge.net/DTD/sodipodi-0.dtd"
   xmlns:inkscape="http://www.inkscape.org/namespaces/inkscape"
   width="32"
   height="32"
   id="svg2"
   version="1.1"
   inkscape:version="0.48.4 r9939"
   sodipodi:docname="swarmer-pod.svg"
   inkscape:export-filename="/home/erethar/project/alecs/media/images/swarmer-pod.png"
   inkscape:export-xdpi="90"
   inkscape:export-ydpi="90">
  <defs
     id="defs4" />
  <sodipodi:namedview
     id="base"
     pagecolor="#ffffff"
     bordercolor="#666666"
     borderopacity="1.0"
     inkscape:pageopacity="0.0"
     inkscape:pageshadow="2"
     inkscape:zoom="27.078193"
     inkscape:cx="15.981567"
     inkscape:cy="16.91398"
     inkscape:document-units="px"
     inkscape:current-layer="layer1"
     showgrid="true"
     inkscape:window-width="1918"
     inkscape:window-height="1059"
     inkscape:window-x="0"
     inkscape:window-y="19"
     inkscape:window-maximized="0">
    <inkscape:grid
       type="xygrid"
       id="grid3753"
       empspacing="4"
       visible="true"
       enabled="true"
       snapvisiblegridlinesonly="true" />
  </sodipodi:namedview>
  <metadata
     id="metadata7">
    <rdf:RDF>
      <cc:Work
         rdf:about="">
        <dc:format>image/svg+xml</dc:format>
        <dc:type
           rdf:resource="http://purl.org/dc/dcmitype/StillImage" />
        <dc:title></dc:title>
      </cc:Work>
    </rdf:RDF>
  </metadata>
  <g
     inkscape:label="Layer 1"
     inkscape:groupmode="layer"
     id="layer1"
     transform="translate(0,-1020.3622)">
    <path
       style="opacity:1;fill:#4d4d4d;fill-opacity:1;fill-rule:nonzero;stroke:none"
       d="M 26.40625 28 L 5.59375 28 C 8.3752617 30.469774 11.975658 32 16 32 C 20.024342 32 23.624738 30.469774 26.40625 28 z "
       id="path3812"
       transform="translate(0,1020.3622)" />
    <path
       style="opacity:0.6;fill:#00ff00;fill-opacity:1;fill-rule:nonzero;stroke:none"
       d="M 2.90625 25 C 3.6657959 26.113257 4.5910908 27.109714 5.59375 28 L 26.40625 28 C 27.408909 27.109714 28.334204 26.113257 29.09375 25 L 2.90625 25 z "
       id="path3809"
       transform="translate(0,1020.3622)" />
    <path
       style="opacity:1;fill:#4d4d4d;fill-opacity:1;fill-rule:nonzero;stroke:none"
       d="M 31.125 21 L 0.875 21 C 1.3502408 22.447811 2.0649235 23.766878 2.90625 25 L 29.09375 25 C 29.935076 23.766878 30.649759 22.447811 31.125 21 z "
       id="path3807"
       transform="translate(0,1020.3622)" />
    <path
       style="opacity:0.6;fill:#00ff00;fill-opacity:1;fill-rule:nonzero;stroke:none"
       d="M 0.1875 18 C 0.31801738 19.033153 0.55896106 20.037194 0.875 21 L 31.125 21 C 31.441039 20.037194 31.681983 19.033153 31.8125 18 L 0.1875 18 z "
       id="path3804"
       transform="translate(0,1020.3622)" />
    <path
       style="opacity:1;fill:#4d4d4d;fill-opacity:1;fill-rule:nonzero;stroke:none"
       d="M 31.625 14 L 0.375 14 C 0.26958311 14.673786 0 15.292852 0 16 C 0 16.686114 0.10369693 17.336629 0.1875 18 L 31.8125 18 C 31.896303 17.336629 32 16.686114 32 16 C 32 15.292852 31.730417 14.673786 31.625 14 z "
       id="path3802"
       transform="translate(0,1020.3622)" />
    <path
       style="opacity:0.6;fill:#00ff00;fill-opacity:1;fill-rule:nonzero;stroke:none"
       d="M 0.90625 11 C 0.58398611 11.946902 0.5328366 12.991167 0.375 14 L 31.625 14 C 31.467164 12.991167 31.416014 11.946902 31.09375 11 L 0.90625 11 z "
       id="path3782"
       transform="translate(0,1020.3622)" />
    <path
       style="opacity:1;fill:#4d4d4d;fill-opacity:1;fill-rule:nonzero;stroke:none"
       d="M 29.09375 7 L 2.90625 7 C 2.0514785 8.220298 1.39465 9.5649432 0.90625 11 L 31.09375 11 C 30.60535 9.5649432 29.948521 8.220298 29.09375 7 z "
       id="path3780"
       transform="translate(0,1020.3622)" />
    <path
       style="opacity:0.6;fill:#00ff00;fill-opacity:1;fill-rule:nonzero;stroke:none"
       d="M 5.53125 4 C 4.5276155 4.8768557 3.671954 5.9068575 2.90625 7 L 29.09375 7 C 28.328046 5.9068575 27.472384 4.8768557 26.46875 4 L 5.53125 4 z "
       id="path3777"
       transform="translate(0,1020.3622)" />
    <path
       style="opacity:1;fill:#4d4d4d;fill-opacity:1;fill-rule:nonzero;stroke:none"
       d="M 5.53125 4 L 26.46875 4 C 23.655903 1.5424706 20.02859 -1.6196838e-15 16 0 C 11.97141 2.1595784e-15 8.3440973 1.5424706 5.53125 4 z "
       id="path3755"
       transform="translate(0,1020.3622)" />
    <rect
       style="fill:#4d4d4d;fill-opacity:1;fill-rule:nonzero;stroke:none"
       id="rect3816"
       width="4"
       height="24"
       x="6"
       y="1024.3622" />
    <rect
       y="1024.3622"
       x="22"
       height="24"
       width="4"
       id="rect3818"
       style="fill:#4d4d4d;fill-opacity:1;fill-rule:nonzero;stroke:none" />
    <rect
       y="1024.3622"
       x="14"
       height="24"
       width="4"
       id="rect3820"
       style="fill:#4d4d4d;fill-opacity:1;fill-rule:nonzero;stroke:none" />
  </g>
</svg>
